<svg width="18" height="15" viewBox="0 0 18 15" fill="none" xmlns="http://www.w3.org/2000/svg">
<path d="M18 7.45396C18 7.60633 17.9395 7.75245 17.8317 7.86019C17.724 7.96792 17.5779 8.02845 17.4255 8.02845H1.96136L7.87376 13.9418C7.9302 13.9944 7.97547 14.0578 8.00687 14.1283C8.03827 14.1988 8.05515 14.2748 8.05651 14.352C8.05788 14.4291 8.04369 14.5057 8.01479 14.5773C7.9859 14.6488 7.94289 14.7138 7.88834 14.7683C7.83379 14.8229 7.76881 14.8659 7.69727 14.8948C7.62574 14.9237 7.54912 14.9379 7.47198 14.9365C7.39485 14.9351 7.31878 14.9183 7.24831 14.8869C7.17784 14.8555 7.11441 14.8102 7.06182 14.7537L0.16801 7.85993C0.0604276 7.75222 0 7.6062 0 7.45396C0 7.30173 0.0604276 7.15571 0.16801 7.048L7.06182 0.154185C7.17072 0.0527082 7.31476 -0.00253644 7.46359 8.95026e-05C7.61242 0.00271544 7.75442 0.063007 7.85968 0.168262C7.96494 0.273518 8.02523 0.415519 8.02785 0.56435C8.03048 0.71318 7.97523 0.85722 7.87376 0.966123L1.96136 6.87948H17.4255C17.5779 6.87948 17.724 6.94001 17.8317 7.04774C17.9395 7.15548 18 7.3016 18 7.45396Z" fill="#00357D"/>
</svg>
