<svg width="15" height="8" viewBox="0 0 15 8" fill="none" xmlns="http://www.w3.org/2000/svg">
<path d="M13.9588 0.22695L7.49934 6.52361L1.03984 0.22695C0.924431 0.114213 0.7695 0.051097 0.608168 0.051097C0.446836 0.051097 0.291906 0.114213 0.176501 0.22695C0.12062 0.281703 0.076225 0.347055 0.0459179 0.419179C0.0156107 0.491304 0 0.568752 0 0.646986C0 0.72522 0.0156107 0.802667 0.0459179 0.874792C0.076225 0.946917 0.12062 1.01227 0.176501 1.06702L7.04829 7.76691C7.16896 7.88454 7.33082 7.95037 7.49934 7.95037C7.66786 7.95037 7.82971 7.88454 7.95039 7.76691L14.8222 1.06831C14.8785 1.01352 14.9232 0.948008 14.9537 0.875644C14.9843 0.80328 15 0.725531 15 0.646986C15 0.568441 14.9843 0.490691 14.9537 0.418327C14.9232 0.345963 14.8785 0.280451 14.8222 0.225657C14.7068 0.11292 14.5518 0.0498047 14.3905 0.0498047C14.2292 0.0498047 14.0742 0.11292 13.9588 0.225657V0.22695Z" fill="#C1C1C1"/>
</svg>
