<svg width="20" height="23" viewBox="0 0 20 23" fill="none" xmlns="http://www.w3.org/2000/svg">
<path fill-rule="evenodd" clip-rule="evenodd" d="M6.80685 2.16685C9.82419 -0.722283 14.704 -0.722283 17.7224 2.16685C20.7592 5.07342 20.7592 9.80147 17.7224 12.7091L9.57086 20.5119C7.42735 22.5631 3.9649 22.5631 1.82138 20.5119C1.30916 20.0296 0.901021 19.4476 0.622045 18.8017C0.34307 18.1558 0.199157 17.4597 0.199157 16.7561C0.199157 16.0525 0.34307 15.3564 0.622045 14.7105C0.901021 14.0647 1.30916 13.4827 1.82138 13.0003L9.85598 5.31034C10.4753 4.72518 11.2951 4.39917 12.1472 4.39917C12.9993 4.39917 13.819 4.72518 14.4384 5.31034C14.7434 5.59814 14.9865 5.94524 15.1526 6.33032C15.3187 6.71541 15.4043 7.13037 15.4043 7.54975C15.4043 7.96913 15.3187 8.38409 15.1526 8.76918C14.9865 9.15426 14.7434 9.50135 14.4384 9.78916L6.34635 17.5366C6.27336 17.6065 6.1873 17.6613 6.09311 17.698C5.99892 17.7346 5.89843 17.7524 5.79738 17.7502C5.69634 17.748 5.59671 17.7259 5.5042 17.6852C5.41168 17.6445 5.32809 17.586 5.25819 17.513C5.18828 17.44 5.13345 17.354 5.0968 17.2598C5.06016 17.1656 5.04242 17.0651 5.04461 16.964C5.0468 16.863 5.06887 16.7634 5.10957 16.6708C5.15026 16.5783 5.20878 16.4947 5.28177 16.4248L13.3738 8.67843C13.5287 8.53418 13.6523 8.35956 13.7368 8.16546C13.8213 7.97137 13.8649 7.76195 13.8649 7.55026C13.8649 7.33858 13.8213 7.12916 13.7368 6.93506C13.6523 6.74096 13.5287 6.56635 13.3738 6.42209C13.0409 6.11114 12.6023 5.93818 12.1467 5.93818C11.6911 5.93818 11.2525 6.11114 10.9195 6.42209L2.88493 14.1121C2.52286 14.4508 2.2342 14.8602 2.03685 15.315C1.83951 15.7698 1.73768 16.2603 1.73768 16.7561C1.73768 17.2519 1.83951 17.7424 2.03685 18.1972C2.2342 18.652 2.52286 19.0614 2.88493 19.4001C4.4336 20.8821 6.95864 20.8821 8.50731 19.4001L16.6588 11.5973C19.0629 9.29584 19.0629 5.57905 16.6588 3.27758C14.2353 0.958686 10.2939 0.958686 7.86938 3.27758L1.30242 9.56455C1.15513 9.70586 0.957734 9.78287 0.753663 9.77864C0.549591 9.77441 0.355559 9.68928 0.214251 9.54199C0.0729429 9.3947 -0.00406585 9.1973 0.000165599 8.99323C0.00439705 8.78916 0.0895222 8.59513 0.236814 8.45382L6.80685 2.16685Z" fill="#505050"/>
</svg>
