<svg width="61" height="50" viewBox="0 0 61 50" fill="none" xmlns="http://www.w3.org/2000/svg">
<path d="M49.6049 0.0213757C49.2017 0.0559425 45.4759 0.384325 41.3307 0.764556L33.7662 1.45589L33.363 0.937388C32.7178 0.107792 31.5727 0.280624 31.2662 1.2312C31.1533 1.55959 31.2662 3.70271 31.6372 8.19636C31.9275 11.7567 32.1694 14.9023 32.1694 15.1615C32.1856 15.7491 32.9759 16.6652 33.4759 16.6652C33.8146 16.6652 34.6372 15.922 34.7823 15.5072C34.8307 15.3689 37.234 15.0751 42.5888 14.5912C46.8469 14.2109 50.7985 13.8134 51.363 13.7097C54.8307 13.1048 57.2985 9.52717 56.7501 5.91497C56.1694 2.18178 53.2178 -0.255157 49.6049 0.0213757ZM52.2985 3.35705C54.3469 4.61872 54.863 7.41861 53.4275 9.44076C52.4436 10.8234 52.0888 10.9271 46.0404 11.4802C43.0888 11.7567 40.6533 11.9641 40.6372 11.9468C40.6211 11.9295 42.7823 9.87284 45.4598 7.36676C50.9275 2.25092 50.7017 2.3719 52.2985 3.35705ZM45.5727 3.59901C45.3469 3.82369 43.1533 5.8804 40.7017 8.17908C36.3952 12.2061 36.2017 12.3616 35.4275 12.4653L34.6211 12.569L34.5404 11.9814C34.363 10.8234 33.9114 4.37676 34.0081 4.29034C34.0888 4.18664 43.8952 3.23606 45.1694 3.2015L45.9759 3.18421L45.5727 3.59901Z" fill="white"/>
<path d="M21.7339 10.1148C19.7823 11.1518 17.9275 15.196 17.9275 18.4107C17.9275 19.4996 18.0081 19.9144 18.3791 20.6921C19.4597 23.0599 21.6533 24.3043 24.0565 23.8895C25.7823 23.5957 27.1856 22.4377 27.9759 20.6403C28.7339 18.8774 28.4597 16.2676 27.2017 13.4677C25.7823 10.3049 23.7501 9.06049 21.7339 10.1148ZM23.9114 13.0702C24.9275 14.2109 26.0565 17.5466 25.8307 18.791C25.5888 20.2082 24.4759 21.1933 23.1694 21.1933C21.8468 21.1933 20.9114 20.4329 20.5727 19.0675C20.3791 18.3243 20.4597 17.5811 20.8468 16.233C21.3952 14.3492 22.5243 12.5171 23.1533 12.5171C23.2985 12.5171 23.6372 12.7764 23.9114 13.0702Z" fill="white"/>
<path d="M33.1692 20.0008C32.2499 20.3119 30.9596 21.7464 30.3144 23.1637C29.2176 25.6179 29.395 27.8993 30.8144 29.5931C33.0725 32.272 37.1208 31.6152 38.5725 28.3314C39.3144 26.6549 38.9757 24.097 37.7338 22.0921C36.5563 20.191 34.8789 19.4132 33.1692 20.0008ZM35.2499 23.2155C36.6047 24.7365 36.7499 27.2598 35.5402 28.1067C34.8467 28.6079 34.1692 28.6425 33.4273 28.2622C32.0886 27.5709 31.8144 26.1537 32.6854 24.3044C33.2015 23.1637 33.7983 22.5415 34.3305 22.5415C34.5079 22.5415 34.9273 22.8526 35.2499 23.2155Z" fill="white"/>
<path d="M0.58871 30.4226C0.25 30.872 0.25 31.0448 0.25 39.9284V48.9675L0.637097 49.4515L1.02419 49.9354H4.26613C7.89516 49.9354 7.95968 49.9181 8.1371 48.691L8.23387 48.0342L30.1855 47.9824L52.121 47.9478L52.3629 48.7601C52.7016 49.9873 52.8629 50.0391 56.4274 49.9873L59.4758 49.9354L59.8629 49.4515L60.25 48.9675V39.9284C60.25 31.0448 60.25 30.872 59.9113 30.4226L59.5887 29.9732H56.3629C54.4435 29.9732 53.0081 30.0424 52.8145 30.1461C52.6371 30.2498 52.4274 30.6646 52.3306 31.0966L52.1532 31.8744H47.7177C42.7177 31.8744 42.7339 31.8744 42.2823 33.1706C41.5242 35.2619 38.6855 36.6446 36.0242 36.1952C34.379 35.936 33.2984 35.3138 32.3145 34.1039C31.5564 33.2052 31.3952 33.0842 30.8629 33.0842C30.1855 33.0842 29.6048 33.5509 29.6048 34.0866C29.6048 34.657 28.6371 36.5063 28.0564 37.0421C27.75 37.3359 27.121 37.7853 26.6532 38.0445C25.9113 38.4766 25.6371 38.5284 24.2823 38.5284C22.9597 38.5284 22.621 38.4593 21.8629 38.0791C20.0887 37.1976 19.121 35.815 18.8145 33.7755C18.6855 32.9114 18.5403 32.5657 18.2339 32.2546C17.8145 31.8744 17.75 31.8744 13.0887 31.8744H8.34677L8.16935 31.0966C8.07258 30.6646 7.8629 30.2498 7.68548 30.1461C7.49194 30.0424 6.05645 29.9732 4.1371 29.9732H0.91129L0.58871 30.4226ZM5.57258 39.9975V47.2565H4.20161H2.83065V39.9975V32.7386H4.20161H5.57258V39.9975ZM57.6694 39.9975V47.2738L56.2661 47.2219L54.8468 47.1701L54.7984 39.9457L54.7661 32.7386H56.2177H57.6694V39.9975ZM16.5081 35.452C16.9758 37.3186 18.6694 39.479 20.379 40.4123C22.8145 41.7431 25.75 41.7086 28.1694 40.3259C29.0403 39.8247 30.5081 38.3556 31.0564 37.4223L31.3145 37.0248L32.1048 37.5606C35.9919 40.2049 41.8629 39.1506 44.0726 35.4175L44.5242 34.6397H48.3629H52.1855V39.9111V45.1825H30.25H8.31452V39.9111V34.6397H12.3145H16.3145L16.5081 35.452Z" fill="white"/>
</svg>
