<svg width="51" height="50" viewBox="0 0 51 50" fill="none" xmlns="http://www.w3.org/2000/svg">
<path fill-rule="evenodd" clip-rule="evenodd" d="M33.1667 0C33.8298 0 34.4657 0.263392 34.9345 0.732233C35.4034 1.20107 35.6667 1.83696 35.6667 2.5V5H38.1667C40.1559 5 42.0635 5.79018 43.4701 7.1967C44.8766 8.60322 45.6667 10.5109 45.6667 12.5V15H48.1667C48.8298 15 49.4657 15.2634 49.9345 15.7322C50.4034 16.2011 50.6667 16.837 50.6667 17.5C50.6667 18.163 50.4034 18.7989 49.9345 19.2678C49.4657 19.7366 48.8298 20 48.1667 20H45.6667V30H48.1667C48.8298 30 49.4657 30.2634 49.9345 30.7322C50.4034 31.2011 50.6667 31.837 50.6667 32.5C50.6667 33.163 50.4034 33.7989 49.9345 34.2678C49.4657 34.7366 48.8298 35 48.1667 35H45.6667V37.5C45.6667 39.4891 44.8766 41.3968 43.4701 42.8033C42.0635 44.2098 40.1559 45 38.1667 45H35.6667V47.5C35.6667 48.163 35.4034 48.7989 34.9345 49.2678C34.4657 49.7366 33.8298 50 33.1667 50C32.5037 50 31.8678 49.7366 31.399 49.2678C30.9301 48.7989 30.6667 48.163 30.6667 47.5V45H20.6667V47.5C20.6667 48.163 20.4034 48.7989 19.9345 49.2678C19.4657 49.7366 18.8298 50 18.1667 50C17.5037 50 16.8678 49.7366 16.399 49.2678C15.9301 48.7989 15.6667 48.163 15.6667 47.5V45H13.1667C11.1776 45 9.26997 44.2098 7.86345 42.8033C6.45692 41.3968 5.66675 39.4891 5.66675 37.5V35H3.16675C2.50371 35 1.86782 34.7366 1.39898 34.2678C0.93014 33.7989 0.666748 33.163 0.666748 32.5C0.666748 31.837 0.93014 31.2011 1.39898 30.7322C1.86782 30.2634 2.50371 30 3.16675 30H5.66675V20H3.16675C2.50371 20 1.86782 19.7366 1.39898 19.2678C0.93014 18.7989 0.666748 18.163 0.666748 17.5C0.666748 16.837 0.93014 16.2011 1.39898 15.7322C1.86782 15.2634 2.50371 15 3.16675 15H5.66675V12.5C5.66675 10.5109 6.45692 8.60322 7.86345 7.1967C9.26997 5.79018 11.1776 5 13.1667 5H15.6667V2.5C15.6667 1.83696 15.9301 1.20107 16.399 0.732233C16.8678 0.263392 17.5037 0 18.1667 0C18.8298 0 19.4657 0.263392 19.9345 0.732233C20.4034 1.20107 20.6667 1.83696 20.6667 2.5V5H30.6667V2.5C30.6667 1.83696 30.9301 1.20107 31.399 0.732233C31.8678 0.263392 32.5037 0 33.1667 0ZM38.1667 10H13.1667C12.5037 10 11.8678 10.2634 11.399 10.7322C10.9301 11.2011 10.6667 11.837 10.6667 12.5V37.5C10.6667 38.163 10.9301 38.7989 11.399 39.2678C11.8678 39.7366 12.5037 40 13.1667 40H38.1667C38.8298 40 39.4657 39.7366 39.9345 39.2678C40.4034 38.7989 40.6667 38.163 40.6667 37.5V12.5C40.6667 11.837 40.4034 11.2011 39.9345 10.7322C39.4657 10.2634 38.8298 10 38.1667 10ZM30.6667 15C31.9282 14.9996 33.1432 15.476 34.0681 16.3337C34.9931 17.1915 35.5596 18.3671 35.6542 19.625L35.6667 20V30C35.6671 31.2614 35.1907 32.4764 34.333 33.4014C33.4753 34.3263 32.2996 34.8929 31.0417 34.9875L30.6667 35H20.6667C19.4053 35.0004 18.1903 34.524 17.2654 33.6663C16.3404 32.8085 15.7739 31.6329 15.6792 30.375L15.6667 30V20C15.6663 18.7386 16.1428 17.5236 17.0005 16.5986C17.8582 15.6737 19.0339 15.1071 20.2917 15.0125L20.6667 15H30.6667ZM30.6667 20H20.6667V30H30.6667V20Z" fill="black"/>
</svg>
