<svg width="17" height="22" viewBox="0 0 17 22" fill="none" xmlns="http://www.w3.org/2000/svg">
<path d="M16 13V10.375C16 9.47989 15.6444 8.62145 15.0115 7.98851C14.3786 7.35558 13.5201 7 12.625 7H11.125C10.8266 7 10.5405 6.88147 10.3295 6.6705C10.1185 6.45952 10 6.17337 10 5.875V4.375C10 3.47989 9.64442 2.62145 9.01149 1.98851C8.37855 1.35558 7.52011 1 6.625 1H4.75M5.5 13L8.5 16M8.5 16L11.5 13M8.5 16V10M7 1H2.125C1.504 1 1 1.504 1 2.125V19.375C1 19.996 1.504 20.5 2.125 20.5H14.875C15.496 20.5 16 19.996 16 19.375V10C16 7.61305 15.0518 5.32387 13.364 3.63604C11.6761 1.94821 9.38695 1 7 1Z" stroke="#171717" stroke-width="1.5" stroke-linecap="round" stroke-linejoin="round"/>
</svg>
