<svg width="51" height="50" viewBox="0 0 51 50" fill="none" xmlns="http://www.w3.org/2000/svg">
<path d="M48.8808 21.4286H47.0951V14.2857H43.5236V21.4286H39.9522V14.2857H36.3808V21.4286H34.5951C34.1215 21.4286 33.6673 21.6167 33.3324 21.9516C32.9975 22.2865 32.8094 22.7407 32.8094 23.2143V30.3571C32.812 32.4144 33.5239 34.4079 34.8251 36.0015C36.1262 37.595 37.937 38.6913 39.9522 39.1054V44.6429C39.9522 45.1165 39.7641 45.5707 39.4292 45.9055C39.0943 46.2404 38.6401 46.4286 38.1665 46.4286H6.02365C5.55005 46.4286 5.09584 46.2404 4.76096 45.9055C4.42607 45.5707 4.23793 45.1165 4.23793 44.6429C4.23793 44.1693 4.42607 43.715 4.76096 43.3802C5.09584 43.0453 5.55005 42.8571 6.02365 42.8571H14.9522C16.373 42.8571 17.7356 42.2927 18.7403 41.2881C19.7449 40.2834 20.3094 38.9208 20.3094 37.5C20.3094 36.0792 19.7449 34.7166 18.7403 33.7119C17.7356 32.7073 16.373 32.1429 14.9522 32.1429H6.02365C5.55005 32.1429 5.09584 31.9547 4.76096 31.6198C4.42607 31.2849 4.23793 30.8307 4.23793 30.3571C4.23793 29.8835 4.42607 29.4293 4.76096 29.0944C5.09584 28.7596 5.55005 28.5714 6.02365 28.5714H14.9522C16.3726 28.57 17.7344 28.0051 18.7387 27.0008C19.7431 25.9964 20.3079 24.6347 20.3094 23.2143V16.0714H22.0951C23.9888 16.0691 25.8042 15.3158 27.1432 13.9767C28.4823 12.6377 29.2356 10.8222 29.2379 8.92857V3.57143H23.8808C22.0525 3.57413 20.2956 4.2815 18.9754 5.54643C18.0503 3.8679 16.6922 2.46804 15.0425 1.49257C13.3927 0.517097 11.5116 0.00168901 9.59508 0H4.23793V5.35714C4.24124 8.19773 5.37113 10.921 7.37973 12.9296C9.38833 14.9382 12.1116 16.0681 14.9522 16.0714H16.7379V23.2143C16.7379 23.6879 16.5498 24.1421 16.2149 24.477C15.88 24.8119 15.4258 25 14.9522 25H6.02365C4.60284 25 3.24023 25.5644 2.23557 26.5691C1.23092 27.5737 0.666504 28.9363 0.666504 30.3571C0.666504 31.7779 1.23092 33.1406 2.23557 34.1452C3.24023 35.1499 4.60284 35.7143 6.02365 35.7143H14.9522C15.4258 35.7143 15.88 35.9024 16.2149 36.2373C16.5498 36.5722 16.7379 37.0264 16.7379 37.5C16.7379 37.9736 16.5498 38.4278 16.2149 38.7627C15.88 39.0976 15.4258 39.2857 14.9522 39.2857H6.02365C4.60284 39.2857 3.24023 39.8501 2.23557 40.8548C1.23092 41.8594 0.666504 43.2221 0.666504 44.6429C0.666504 46.0637 1.23092 47.4263 2.23557 48.4309C3.24023 49.4356 4.60284 50 6.02365 50H38.1665C39.5869 49.9986 40.9487 49.4337 41.953 48.4294C42.9574 47.425 43.5222 46.0632 43.5236 44.6429V39.1054C45.5388 38.6913 47.3496 37.595 48.6508 36.0015C49.9519 34.4079 50.6638 32.4144 50.6665 30.3571V23.2143C50.6665 22.7407 50.4784 22.2865 50.1435 21.9516C49.8086 21.6167 49.3544 21.4286 48.8808 21.4286ZM20.3094 10.7143C20.3103 9.76737 20.6869 8.85952 21.3565 8.18995C22.026 7.52038 22.9339 7.1438 23.8808 7.14286H25.6665V8.92857C25.6656 9.87548 25.289 10.7833 24.6194 11.4529C23.9498 12.1225 23.042 12.4991 22.0951 12.5H20.3094V10.7143ZM14.9522 12.5C13.0585 12.4976 11.2431 11.7443 9.90407 10.4053C8.56503 9.06626 7.81172 7.25082 7.80936 5.35714V3.57143H9.59508C11.4888 3.57379 13.3042 4.3271 14.6432 5.66613C15.9823 7.00517 16.7356 8.82061 16.7379 10.7143V12.5H14.9522ZM47.0951 30.3571C47.0951 31.7779 46.5307 33.1406 45.526 34.1452C44.5213 35.1499 43.1587 35.7143 41.7379 35.7143C40.3171 35.7143 38.9545 35.1499 37.9499 34.1452C36.9452 33.1406 36.3808 31.7779 36.3808 30.3571V25H47.0951V30.3571Z" fill="white"/>
</svg>
