<svg width="51" height="50" viewBox="0 0 51 50" fill="none" xmlns="http://www.w3.org/2000/svg">
<path d="M25.333 0C11.9997 0 0.333008 10.7222 0.333008 25C0.333008 30.8889 2.38856 36.3056 5.80523 40.5833L0.333008 46.0833L4.24967 50L9.7219 44.5278C14.1552 48.0682 19.6595 49.9976 25.333 50C31.7219 50 38.1386 47.5556 42.9997 42.6667C45.328 40.352 47.1748 37.5991 48.4334 34.5668C49.6921 31.5346 50.3377 28.2831 50.333 25V0H25.333ZM44.7775 25C44.7775 30.1944 42.7497 35.0833 39.083 38.75C37.281 40.5605 35.138 41.9959 32.7779 42.9733C30.4178 43.9507 27.8875 44.4507 25.333 44.4444C14.6108 44.4444 5.88856 35.7222 5.88856 25C5.88856 19.7222 7.94412 14.7778 11.7219 11.1389C15.3425 7.55167 20.2363 5.54421 25.333 5.55556H44.7775V25Z" fill="black"/>
<path d="M15.4987 26.75L26.7487 27.8611L19.9709 37.1111C19.6654 37.5556 19.6931 38.1667 20.082 38.5556C20.4987 38.9723 21.1931 39 21.6376 38.5834L35.9709 25.7223C36.8876 24.8889 36.3876 23.3611 35.1376 23.25L23.8876 22.1389L30.6654 12.8889C30.9709 12.4445 30.9431 11.8334 30.5543 11.4445C30.3485 11.2403 30.0719 11.1235 29.7821 11.1183C29.4923 11.1132 29.2116 11.22 28.9987 11.4167L14.6654 24.2778C13.7765 25.1111 14.2765 26.6389 15.4987 26.75Z" fill="black"/>
</svg>
