<svg width="17" height="21" viewBox="0 0 17 21" fill="none" xmlns="http://www.w3.org/2000/svg">
<path d="M8.50244 0C6.24957 0.00258035 4.08973 0.872603 2.4967 2.41922C0.903678 3.96584 0.00754963 6.06276 0.00489185 8.25C0.00219358 10.0374 0.603568 11.7763 1.71676 13.2C1.71676 13.2 1.94851 13.4963 1.98637 13.539L8.50244 21L15.0216 13.5353C15.0556 13.4955 15.2881 13.2 15.2881 13.2L15.2889 13.1978C16.4015 11.7747 17.0026 10.0366 17 8.25C16.9973 6.06276 16.1012 3.96584 14.5082 2.41922C12.9152 0.872603 10.7553 0.00258035 8.50244 0ZM8.50244 11.25C7.89129 11.25 7.29387 11.0741 6.78572 10.7444C6.27757 10.4148 5.88151 9.94623 5.64764 9.39805C5.41376 8.84987 5.35257 8.24667 5.4718 7.66473C5.59103 7.08279 5.88532 6.54824 6.31747 6.12868C6.74962 5.70912 7.3002 5.4234 7.89961 5.30764C8.49901 5.19189 9.12031 5.2513 9.68494 5.47836C10.2496 5.70542 10.7322 6.08994 11.0717 6.58329C11.4112 7.07664 11.5925 7.65666 11.5925 8.25C11.5914 9.04535 11.2656 9.80783 10.6863 10.3702C10.107 10.9326 9.32165 11.249 8.50244 11.25Z" fill="white"/>
</svg>
