<svg width="36" height="50" viewBox="0 0 36 50" fill="none" xmlns="http://www.w3.org/2000/svg">
<path fill-rule="evenodd" clip-rule="evenodd" d="M15.8576 0C16.47 8.07794e-05 17.061 0.224899 17.5186 0.631812C17.9762 1.03873 18.2686 1.59943 18.3402 2.20758L18.3577 2.50009V7.9253C19.5608 8.35056 20.6356 9.07564 21.4804 10.032C22.3252 10.9884 22.9121 12.1444 23.1857 13.3908C23.4592 14.6372 23.4104 15.9327 23.0437 17.155C22.6771 18.3772 22.0048 19.4858 21.0903 20.3758L20.7303 20.7033L25.3155 32.6287C27.3676 31.5241 29.2119 30.0706 30.7657 28.3336C30.9837 28.0855 31.2487 27.883 31.5454 27.7379C31.8421 27.5928 32.1646 27.508 32.4942 27.4882C32.8239 27.4685 33.1543 27.5143 33.4661 27.6229C33.778 27.7315 34.0653 27.9009 34.3114 28.1212C34.5574 28.3415 34.7574 28.6084 34.8997 28.9064C35.0421 29.2044 35.1239 29.5277 35.1406 29.8575C35.1573 30.1874 35.1085 30.5173 34.9969 30.8281C34.8854 31.139 34.7134 31.4247 34.4908 31.6687C32.6424 33.7345 30.4645 35.4799 28.0456 36.8339L27.1205 37.3264L30.6907 46.6043C30.9161 47.1987 30.9066 47.8568 30.6641 48.4445C30.4215 49.0322 29.9642 49.5054 29.3851 49.7678C28.806 50.0303 28.1487 50.0623 27.5469 49.8573C26.9451 49.6523 26.444 49.2257 26.1455 48.6643L26.0255 48.3993L22.4554 39.1215C18.4415 40.214 14.2193 40.293 10.1674 39.3515L9.25987 39.1215L5.68974 48.3993C5.46039 48.9941 5.01248 49.4789 4.43758 49.7544C3.86269 50.03 3.20426 50.0755 2.59693 49.8816C1.9896 49.6878 1.47925 49.2693 1.17025 48.7117C0.861247 48.1541 0.776938 47.4995 0.93456 46.8818L1.02456 46.6043L10.9849 20.7033C10.0132 19.8735 9.2695 18.8092 8.82451 17.6113C8.37952 16.4135 8.24796 15.1218 8.4423 13.8588C8.63664 12.5958 9.15045 11.4034 9.93498 10.3947C10.7195 9.38606 11.7487 8.59455 12.925 8.0953L13.3575 7.9253V2.50009C13.3575 1.83703 13.6209 1.20112 14.0898 0.732261C14.5586 0.263402 15.1946 0 15.8576 0ZM20.6503 34.4263L16.0626 22.4983L15.8576 22.5008L15.6526 22.4983L11.0649 34.4238C12.6334 34.8086 14.2426 35.0025 15.8576 35.0013C17.5077 35.0013 19.1152 34.8013 20.6503 34.4263ZM15.8576 12.5005C15.1946 12.5005 14.5586 12.7639 14.0898 13.2327C13.6209 13.7016 13.3575 14.3375 13.3575 15.0006C13.3575 15.6636 13.6209 16.2995 14.0898 16.7684C14.5586 17.2373 15.1946 17.5007 15.8576 17.5007C16.5207 17.5007 17.1566 17.2373 17.6255 16.7684C18.0943 16.2995 18.3577 15.6636 18.3577 15.0006C18.3577 14.3375 18.0943 13.7016 17.6255 13.2327C17.1566 12.7639 16.5207 12.5005 15.8576 12.5005Z" fill="white"/>
</svg>
