<svg width="58" height="50" viewBox="0 0 58 50" fill="none" xmlns="http://www.w3.org/2000/svg">
<path d="M5.45236 2.67857V44.6429H54.5595C55.2699 44.6429 55.9512 44.9251 56.4535 45.4274C56.9559 45.9297 57.2381 46.611 57.2381 47.3214C57.2381 48.0318 56.9559 48.7131 56.4535 49.2155C55.9512 49.7178 55.2699 50 54.5595 50H2.77379C2.06339 50 1.38208 49.7178 0.87975 49.2155C0.377421 48.7131 0.0952148 48.0318 0.0952148 47.3214L0.0952148 2.67857C0.0952148 1.96817 0.377421 1.28686 0.87975 0.784535C1.38208 0.282206 2.06339 0 2.77379 0C3.48419 0 4.16549 0.282206 4.66782 0.784535C5.17015 1.28686 5.45236 1.96817 5.45236 2.67857ZM56.4524 11.7143L37.7024 30.4643C37.2001 30.9659 36.5193 31.2476 35.8095 31.2476C35.0997 31.2476 34.4189 30.9659 33.9166 30.4643L25.0952 21.6429L15.3809 31.3571C14.8729 31.83 14.2012 32.0875 13.5072 32.0756C12.8133 32.0636 12.1509 31.783 11.6595 31.2929C11.1693 30.8014 10.8888 30.1391 10.8768 29.4451C10.8648 28.7511 11.1223 28.0795 11.5952 27.5714L23.2024 15.9643C23.7046 15.4627 24.3854 15.1809 25.0952 15.1809C25.805 15.1809 26.4858 15.4627 26.9881 15.9643L35.8095 24.7857L52.6666 7.92857C53.1747 7.45568 53.8463 7.19817 54.5403 7.21016C55.2343 7.22215 55.8966 7.5027 56.3881 7.99286C56.8782 8.4843 57.1588 9.14662 57.1708 9.84061C57.1828 10.5346 56.9252 11.2062 56.4524 11.7143Z" fill="black"/>
</svg>
