<svg width="49" height="50" viewBox="0 0 49 50" fill="none" xmlns="http://www.w3.org/2000/svg">
<path d="M31.7497 0L30.2685 2.29173C34.3197 4.96877 37.4489 8.65155 40.5474 15.5641L42.3328 12.8912C41.7859 11.016 41.1868 9.02728 40.6352 7.35812C40.0414 5.56064 39.411 4.03232 39.2448 3.78148C39.1047 3.57029 38.1044 2.76303 36.6421 2.02085C35.3387 1.35926 33.6424 0.657274 31.7498 0.000107691L31.7497 0ZM32.6335 6.62984L26.8553 11.2624C27.997 11.9278 28.8181 13.103 29.0106 14.4764L35.1114 9.58499C34.3133 8.4548 33.4946 7.48549 32.6335 6.62984ZM24.7046 12.6184C23.3454 12.6184 22.2643 13.7163 22.2643 15.0966C22.2643 16.4768 23.3454 17.5749 24.7046 17.5749C26.0637 17.5749 27.1449 16.4768 27.1449 15.0966C27.1449 13.7163 26.0637 12.6184 24.7046 12.6184ZM20.5304 16.3331L6.4542 27.6187C7.71022 28.1219 8.61929 29.3441 8.67966 30.7765L23.1131 19.2046C21.8743 18.7051 20.9098 17.6431 20.5304 16.3331ZM39.0282 16.8124V39.4405H40.938V18.434L40.1866 19.559L39.5019 17.9191C39.347 17.5489 39.1891 17.18 39.0282 16.8124ZM29.1993 16.8709L27.5213 18.1902L27.9237 20.1313L26.3825 19.0854L24.7899 20.3376L27.8452 22.411L20.2797 25.9486L20.7911 23.4815L18.4594 25.3147L15.8754 37.779L15.8287 37.8L15.8576 37.8658L13.7441 48.0605H12.0786V50H35.633V47.9054L29.1993 16.8709ZM28.751 24.1225L30.0263 30.2737L21.6383 27.4487L28.751 24.1225ZM19.6818 28.833L28.8523 31.9217L18.0287 36.8069L19.6818 28.833ZM5.18205 29.3121C4.29186 29.3121 3.59054 30.0243 3.59054 30.9284C3.59054 31.8325 4.29186 32.5446 5.18205 32.5446C6.07224 32.5446 6.77356 31.8324 6.77356 30.9284C6.77356 30.0244 6.07224 29.3121 5.18205 29.3121ZM30.6404 33.2371L32.2269 40.8904L20.3486 37.8825L30.6404 33.2371ZM7.42301 33.6522C6.93547 34.0671 6.33653 34.3505 5.68083 34.4471L7.93717 39.4406H10.0384L7.42301 33.6522ZM2.94216 33.6531L0.32571 39.4406H2.42735L4.68476 34.4473C4.02895 34.3511 3.4298 34.0679 2.94216 33.6531ZM17.5389 39.1698L29.9294 42.3073L15.8073 47.5227L17.5389 39.1698ZM0.195312 41.3799V48.0604H10.1688V41.3799H0.195312ZM37.5428 41.3799V43.1039H42.4234V41.3799H37.5428ZM32.7339 43.3356L33.7134 48.0604H19.9394L32.7339 43.3356ZM37.5428 45.0434V48.0604H42.4234V45.0434H37.5428ZM44.3332 48.0604V49.9999H48.4712V48.0604H44.3332Z" fill="white"/>
</svg>
