<svg width="42" height="50" viewBox="0 0 42 50" fill="none" xmlns="http://www.w3.org/2000/svg">
<path d="M21 0L0.54541 9.09091V22.7273C0.54541 35.3409 9.27268 47.1364 21 50C32.7272 47.1364 41.4545 35.3409 41.4545 22.7273V9.09091L21 0ZM21 13.6364C24.1818 13.6364 27.3636 16.1364 27.3636 19.3182V22.7273C28.7272 22.7273 30.0909 24.0909 30.0909 25.6818V33.6364C30.0909 35 28.7272 36.3636 27.1363 36.3636H14.6363C13.2727 36.3636 11.909 35 11.909 33.4091V25.4545C11.909 24.0909 13.2727 22.7273 14.6363 22.7273V19.3182C14.6363 16.1364 17.8181 13.6364 21 13.6364ZM21 16.3636C19.1818 16.3636 17.5909 17.5 17.5909 19.3182V22.7273H24.409V19.3182C24.409 17.5 22.8181 16.3636 21 16.3636Z" fill="black"/>
</svg>
