<svg width="59" height="50" viewBox="0 0 59 50" fill="none" xmlns="http://www.w3.org/2000/svg">
<path d="M43.9463 0.000105116C42.7209 -0.00731481 41.5254 0.378261 40.5352 1.10024C39.5451 1.82222 38.8124 2.84258 38.4448 4.01156L36.1526 11.3181C35.097 11.357 34.0577 11.5902 33.0867 12.0058L27.8431 6.36112L24.0323 2.12044C23.4763 2.6297 23.0262 3.24367 22.708 3.92716C22.3897 4.61065 22.2094 5.35023 22.1775 6.10352C22.1455 6.85681 22.2626 7.60899 22.5218 8.31697C22.7811 9.02495 23.1775 9.67481 23.6884 10.2293L28.8746 15.874C28.6198 16.3406 28.4088 16.8298 28.2443 17.3353C28.0937 17.831 27.9882 18.3393 27.9291 18.8539L20.4506 20.5158L14.8346 21.7766C14.9973 22.5127 15.3036 23.2095 15.7361 23.8271C16.1686 24.4446 16.7187 24.9707 17.3548 25.3753C17.991 25.7799 18.7007 26.055 19.4434 26.1848C20.186 26.3146 20.947 26.2966 21.6827 26.1319L29.1612 24.4413C29.7193 25.3387 30.4381 26.1255 31.2815 26.7622L28.9893 34.0688L27.2701 39.5416C28.7178 39.9904 30.2843 39.8474 31.6268 39.1439C32.9693 38.4404 33.9784 37.2338 34.4334 35.788L36.7543 28.5101C37.8098 28.4712 38.8492 28.238 39.8202 27.8224L45.0351 33.4671L48.846 37.6791C49.9642 36.6555 50.6313 35.2304 50.7011 33.7159C50.7709 32.2015 50.2378 30.7211 49.2184 29.5989L44.0322 23.9542C44.2772 23.4866 44.4787 22.9974 44.6339 22.4929C44.8154 21.9907 44.9497 21.4727 45.0351 20.9456L52.4563 19.2837L58.0436 18.0516C57.7147 16.571 56.8122 15.2812 55.5339 14.4648C54.2556 13.6484 52.7058 13.3721 51.2242 13.6964L43.7457 15.3582C43.1848 14.4711 42.4661 13.6942 41.6253 13.066L43.9176 5.73075L45.6368 0.286638C45.0908 0.106887 44.5209 0.0102947 43.9463 0.000105116ZM36.611 15.6161C36.9907 15.6333 37.3665 15.7007 37.7285 15.8167C38.8148 16.1592 39.7207 16.919 40.2472 17.929C40.7738 18.9391 40.8778 20.1168 40.5365 21.2035C40.194 22.2898 39.4342 23.1957 38.4242 23.7222C37.4142 24.2488 36.2364 24.3528 35.1497 24.0115C34.0634 23.669 33.1575 22.9092 32.631 21.8992C32.1045 20.8892 32.0004 19.7114 32.3417 18.6247C32.6229 17.7289 33.1897 16.9497 33.9555 16.4064C34.7213 15.8631 35.6439 15.5855 36.5824 15.6161M17.8145 28.9972C14.3188 31.4614 10.336 32.8081 6.35321 32.8081H0.622559V38.5387H6.35321C10.2787 38.5387 14.2042 37.5358 17.8145 35.6734C20.0208 36.8195 22.3417 37.5645 24.7199 37.9943L26.2386 33.2092L26.4964 32.4642C23.4592 32.0344 20.4792 30.8596 17.8145 28.9972ZM53.4878 32.8081C53.631 34.8138 53.1439 36.8482 51.9405 38.5387H57.929V32.8081H53.4878ZM17.8145 40.4585C14.3188 42.9227 10.336 44.2694 6.35321 44.2694H0.622559V50H6.35321C10.2787 50 14.2042 48.9971 17.8145 47.1347C24.9778 50.8596 33.5738 50.8596 40.7371 47.1347C44.3474 48.9971 48.2442 50 52.1984 50H57.929V44.2694H52.1984C48.2156 44.2694 44.2328 42.9227 40.7371 40.4585C33.7457 45.3582 24.8059 45.3582 17.8145 40.4585Z" fill="black"/>
</svg>
