<svg width="46" height="50" viewBox="0 0 46 50" fill="none" xmlns="http://www.w3.org/2000/svg">
<path d="M22.4174 0.0544662C21.0696 0.257702 19.6256 0.985073 18.3954 2.07613C16.9621 3.34904 15.2934 5.95903 14.2023 8.65459L14.0312 9.07176L13.4643 8.99688C8.27638 8.34438 4.57533 9.15733 2.40391 11.4143C0.649656 13.2542 0.275273 15.9497 1.35564 19.0945C1.87977 20.6349 3.0885 22.7635 4.34001 24.3787L4.83205 25.0098L4.61812 25.2879C3.19546 27.1277 2.13649 28.9141 1.52678 30.4865C0.981253 31.8664 0.767319 32.9467 0.767319 34.2517C0.767319 36.1557 1.29146 37.5035 2.52157 38.7336C4.22234 40.4237 6.70397 41.2366 10.1911 41.2366C11.4747 41.2366 13.1755 41.1083 13.7745 40.9692C13.967 40.9264 14.0526 41.0441 14.3949 41.8571C16.2882 46.2641 18.9089 49.1308 21.69 49.8368C22.503 50.0507 23.947 50.0507 24.6958 49.8582C27.5197 49.1094 30.0869 46.3817 31.9053 42.178C32.3011 41.258 32.4723 40.9692 32.622 40.9906C32.7183 41.0013 33.2745 41.0548 33.8521 41.119C36.077 41.365 38.8154 41.2046 40.4306 40.7446C43.094 39.9744 44.9446 38.2309 45.5329 35.9418C45.7147 35.2037 45.7468 33.4816 45.5757 32.6579C45.1371 30.4865 43.8749 27.9514 42.0137 25.5018L41.6393 25.0205L42.0779 24.4322C43.5433 22.5068 44.8055 20.1535 45.3297 18.3993C45.704 17.1157 45.8003 15.201 45.5436 14.1741C44.8804 11.5427 42.7838 9.76704 39.5534 9.08245C37.842 8.71877 35.4459 8.69738 32.9964 8.99688L32.4295 9.07176L32.1941 8.49414C30.825 5.16747 28.8354 2.43982 26.8244 1.13483C25.4873 0.268398 23.7759 -0.15947 22.4174 0.0544662ZM24.2465 2.14032C24.5888 2.23658 25.1129 2.43982 25.4124 2.60027C26.204 3.01744 27.8085 4.64334 28.5252 5.75579C29.1349 6.6971 30.4613 9.33918 30.365 9.42475C30.3436 9.45684 29.7018 9.63868 28.9424 9.84192C27.4662 10.227 25.5622 10.8581 24.1182 11.4464L23.2303 11.7994L22.3532 11.4464C20.9198 10.8688 19.3474 10.3447 17.6895 9.8954C16.8337 9.66008 16.117 9.44614 16.085 9.41405C15.9994 9.32848 17.3365 6.6864 17.9462 5.74509C18.6628 4.64334 20.2674 3.01744 21.0482 2.60027C22.15 2.01196 23.1661 1.8622 24.2465 2.14032ZM12.7797 10.9223C13.3894 11.0079 13.3894 10.8153 12.8011 13.0509C12.4909 14.2383 11.7849 17.9179 11.7849 18.3351C11.7849 18.3886 11.5175 18.6346 11.1859 18.8806C10.1162 19.6829 8.8754 20.7846 7.49553 22.1538L6.14775 23.4802L5.55943 22.6565C3.92284 20.3888 3.04571 18.4634 2.78899 16.5594C2.436 14.0564 3.66612 12.1845 6.20123 11.3501C6.9286 11.1148 7.44204 11.0079 8.73634 10.8153C9.14281 10.7511 12.1058 10.8367 12.7797 10.9223ZM38.794 10.9651C42.8159 11.7138 44.4418 14.0885 43.4256 17.7361C43.0192 19.2229 42.142 20.9344 40.9012 22.6565L40.3022 23.4909L38.9116 22.111C37.7029 20.913 36.2696 19.6401 35.0181 18.6667C34.7079 18.4206 34.6651 18.3137 34.5153 17.3296C34.2586 15.6823 33.8307 13.6178 33.4884 12.3877C33.3173 11.778 33.1782 11.2111 33.1782 11.1362C33.1782 11.0186 33.4029 10.9651 34.0126 10.9116C34.4618 10.8688 34.8897 10.826 34.9432 10.7939C35.1464 10.7083 38.1522 10.8474 38.794 10.9651ZM17.7215 11.992C18.6094 12.238 19.6256 12.5589 19.9892 12.6979L20.6524 12.944L19.5614 13.5216C17.9462 14.3773 16.3524 15.2972 15.1757 16.0674C14.5981 16.4311 14.1168 16.7413 14.0954 16.7413C13.9884 16.7413 14.7479 13.3397 15.165 11.9492L15.3362 11.3822L15.7213 11.4571C15.9459 11.4999 16.8444 11.7352 17.7215 11.992ZM31.3384 12.1631C31.8091 13.7783 32.4723 16.7413 32.3653 16.7413C32.3439 16.7413 31.8625 16.4311 31.2849 16.0674C29.9585 15.201 28.3006 14.2489 26.8779 13.5323L25.7654 12.9653L26.2896 12.7728C27.3272 12.3663 30.4934 11.4571 30.9961 11.4036C31.0603 11.3929 31.2207 11.7459 31.3384 12.1631ZM24.8669 14.7517C27.017 15.8107 29.0386 16.9659 30.8784 18.196C32.9429 19.5759 32.7611 19.3833 32.868 20.3461C33.1461 22.9346 33.0606 29.8554 32.7397 30.4544C32.6006 30.7111 30.9105 31.8771 28.921 33.0751C27.1774 34.1234 23.5512 35.9953 23.241 35.9953C22.9843 35.9953 19.8609 34.4443 18.3099 33.535C16.4807 32.4761 13.9456 30.786 13.7638 30.5079C13.5178 30.1228 13.3466 26.6785 13.4322 23.6941C13.5178 20.4958 13.614 19.5652 13.8814 19.3513C14.427 18.9341 16.8979 17.3189 17.989 16.6771C18.9731 16.0995 23.0806 13.9601 23.2089 13.9601C23.2303 13.9601 23.9684 14.3238 24.8669 14.7517ZM11.4105 24.967C11.4105 28.2616 11.3891 28.6895 11.2501 28.6146C10.9506 28.4434 8.30847 25.9725 7.8913 25.4698L7.47413 24.9563L8.10524 24.3145C8.45823 23.9615 9.33535 23.1272 10.0734 22.4533C10.8115 21.7901 11.4105 21.2339 11.4105 21.2339C11.4105 21.2339 11.4105 22.9132 11.4105 24.967ZM37.6601 23.662L38.9972 24.9563L38.4303 25.6088C37.9276 26.1864 35.3176 28.6253 35.1143 28.7001C35.0715 28.7108 35.0395 27.0422 35.0395 24.9884V21.2553L35.6813 21.8008C36.0342 22.111 36.9328 22.9453 37.6601 23.662ZM10.4799 30.5828C11.1966 31.1604 11.7849 31.6738 11.7849 31.7166C11.7849 31.7701 11.9026 32.5082 12.0523 33.3639C12.3732 35.2465 12.769 37.0436 13.1113 38.156C13.3359 38.9048 13.3466 38.9903 13.1862 39.0331C13.0899 39.0652 12.3732 39.1401 11.5817 39.2043C10.2446 39.3005 8.24429 39.215 7.40995 39.0331C3.61263 38.1774 2.09371 35.9311 2.96014 32.5082C3.34522 30.9999 4.26513 29.1708 5.49525 27.4593L6.13705 26.5715L7.65598 28.0477C8.49032 28.8606 9.75252 29.9944 10.4799 30.5828ZM41.3826 28.069C42.6769 30.0158 43.4577 31.8557 43.6717 33.5137C44.1958 37.4393 40.7836 39.6428 34.879 39.2043C34.0874 39.1401 33.3708 39.0652 33.2745 39.0438C33.1247 38.9903 33.1354 38.862 33.4029 37.9421C33.7345 36.8082 34.2693 34.3694 34.4511 33.1072C34.526 32.6686 34.6009 32.1552 34.633 31.9733C34.6758 31.6952 34.9111 31.4492 35.9808 30.5828C36.6974 29.9944 37.9596 28.8606 38.794 28.0583L40.2915 26.5929L40.5375 26.8817C40.6659 27.0422 41.051 27.577 41.3826 28.069ZM15.3041 34.0485C16.5021 34.8293 18.9196 36.1985 19.9465 36.7013C20.278 36.8724 20.5562 37.0329 20.5562 37.0756C20.5562 37.2254 15.4645 38.7657 15.3683 38.6481C15.1436 38.3592 13.9563 33.3211 14.1168 33.3211C14.1489 33.3211 14.6837 33.6527 15.3041 34.0485ZM32.376 33.4495C32.3546 33.5243 32.2369 34.1127 32.1086 34.7438C31.9053 35.76 31.1887 38.5518 31.1138 38.6374C30.9854 38.755 25.9045 37.2361 25.9045 37.0756C25.9045 37.0329 26.2254 36.8403 26.6319 36.6478C27.6481 36.145 30.1618 34.6903 31.3063 33.9522C32.3118 33.2997 32.4509 33.2355 32.376 33.4495ZM24.4497 38.7122C25.9259 39.2899 28.0117 39.9744 29.2739 40.2846C29.8088 40.413 30.2794 40.5521 30.3222 40.5948C30.3757 40.6376 30.1511 41.2366 29.8195 41.9212C28.1722 45.387 26.0222 47.5905 23.9042 47.9755C21.9039 48.3285 19.7432 47.0128 17.9997 44.3815C17.2937 43.3118 16.0101 40.7125 16.1277 40.6055C16.1812 40.5521 16.5877 40.4344 17.0263 40.3274C17.9676 40.1028 21.6044 38.9155 22.535 38.5197C22.888 38.3699 23.1982 38.2523 23.2196 38.2416C23.241 38.2416 23.7973 38.4555 24.4497 38.7122Z" fill="white"/>
<path d="M20.4812 18.7522C19.0051 19.6828 17.7643 20.453 17.7322 20.4851C17.6359 20.5813 23.3265 24.0471 23.4656 23.9829C23.8614 23.8117 28.953 20.592 28.9423 20.5172C28.9316 20.3888 23.5298 17.0621 23.3372 17.0728C23.2516 17.0835 21.968 17.8323 20.4812 18.7522Z" fill="white"/>
<path d="M16.3843 25.5981L16.395 29.0959L19.3152 30.8823C20.9197 31.8771 22.2674 32.6793 22.2995 32.6793C22.3423 32.6793 22.3744 31.1283 22.3744 29.2243V25.78L20.4169 24.5819C19.3473 23.9187 17.9995 23.0951 17.4326 22.7421L16.3843 22.0896V25.5981Z" fill="white"/>
<path d="M27.3804 23.9294L24.4067 25.7586V29.2243C24.4067 31.1176 24.4281 32.6793 24.4602 32.6793C24.5137 32.6793 30.2043 29.1601 30.322 29.0531C30.3648 29.0104 30.3862 27.4273 30.3755 25.5339L30.3434 22.1003L27.3804 23.9294Z" fill="white"/>
</svg>
