<svg width="19" height="19" viewBox="0 0 19 19" fill="none" xmlns="http://www.w3.org/2000/svg">
<path d="M17.0051 8.999H19.0051C19.0051 3.869 15.1321 0 9.99512 0V2C14.0571 2 17.0051 4.943 17.0051 8.999Z" fill="white"/>
<path d="M10.0052 5.99999C12.1082 5.99999 13.0052 6.89699 13.0052 8.99999H15.0052C15.0052 5.77499 13.2302 3.99999 10.0052 3.99999V5.99999ZM13.4272 11.443C13.235 11.2683 12.9825 11.1752 12.723 11.1832C12.4634 11.1912 12.2172 11.2998 12.0362 11.486L9.64316 13.947C9.06716 13.837 7.90916 13.476 6.71716 12.287C5.52517 11.094 5.16417 9.93299 5.05717 9.361L7.51616 6.96699C7.70258 6.78612 7.8113 6.53982 7.81933 6.2802C7.82735 6.02059 7.73405 5.76804 7.55917 5.57599L3.86417 1.51299C3.68921 1.32035 3.44604 1.2035 3.18632 1.18725C2.92659 1.17101 2.67076 1.25665 2.47316 1.42599L0.303165 3.28699C0.130276 3.46051 0.0270843 3.69145 0.0131648 3.93599C-0.00183523 4.18599 -0.287835 10.108 4.30416 14.702C8.31017 18.707 13.3282 19 14.7102 19C14.9122 19 15.0362 18.994 15.0692 18.992C15.3137 18.9783 15.5445 18.8747 15.7172 18.701L17.5772 16.53C17.7466 16.3325 17.8324 16.0768 17.8164 15.817C17.8003 15.5573 17.6837 15.3141 17.4912 15.139L13.4272 11.443Z" fill="white"/>
</svg>
