<svg width="52" height="50" viewBox="0 0 52 50" fill="none" xmlns="http://www.w3.org/2000/svg">
<path d="M48.5266 40.0471H33.0584C32.6847 38.9974 32.082 38.044 31.2941 37.2561C30.5062 36.4682 29.5528 35.8655 28.5031 35.4917V27.5324H46.0237C46.6875 27.5324 47.3241 27.2687 47.7935 26.7993C48.2629 26.3299 48.5266 25.6933 48.5266 25.0294C48.5266 24.3656 48.2629 23.729 47.7935 23.2596C47.3241 22.7902 46.6875 22.5265 46.0237 22.5265H43.5207V7.50883C43.5207 5.51737 42.7296 3.60747 41.3215 2.19929C39.9133 0.791107 38.0034 0 36.0119 0H15.9884C13.9969 0 12.087 0.791107 10.6788 2.19929C9.27064 3.60747 8.47953 5.51737 8.47953 7.50883V22.5265H5.97659C5.31277 22.5265 4.67614 22.7902 4.20674 23.2596C3.73735 23.729 3.47365 24.3656 3.47365 25.0294C3.47365 25.6933 3.73735 26.3299 4.20674 26.7993C4.67614 27.2687 5.31277 27.5324 5.97659 27.5324H23.4972V35.4917C22.4475 35.8655 21.4941 36.4682 20.7062 37.2561C19.9183 38.044 19.3156 38.9974 18.9418 40.0471H3.47365C2.80982 40.0471 2.17319 40.3108 1.7038 40.7802C1.23441 41.2496 0.970703 41.8862 0.970703 42.55C0.970703 43.2139 1.23441 43.8505 1.7038 44.3199C2.17319 44.7893 2.80982 45.053 3.47365 45.053H18.9418C19.468 46.5026 20.4277 47.755 21.6905 48.6401C22.9533 49.5252 24.458 50 26.0001 50C27.5423 50 29.047 49.5252 30.3098 48.6401C31.5726 47.755 32.5323 46.5026 33.0584 45.053H48.5266C49.1905 45.053 49.8271 44.7893 50.2965 44.3199C50.7659 43.8505 51.0296 43.2139 51.0296 42.55C51.0296 41.8862 50.7659 41.2496 50.2965 40.7802C49.8271 40.3108 49.1905 40.0471 48.5266 40.0471ZM13.4854 22.5265V7.50883C13.4854 6.84501 13.7491 6.20838 14.2185 5.73898C14.6879 5.26959 15.3245 5.00589 15.9884 5.00589H36.0119C36.6757 5.00589 37.3124 5.26959 37.7818 5.73898C38.2512 6.20838 38.5149 6.84501 38.5149 7.50883V22.5265H13.4854ZM26.0001 45.053C25.5051 45.053 25.0212 44.9062 24.6096 44.6312C24.198 44.3561 23.8772 43.9652 23.6877 43.5079C23.4983 43.0505 23.4487 42.5473 23.5453 42.0617C23.6419 41.5762 23.8802 41.1302 24.2303 40.7802C24.5803 40.4302 25.0263 40.1918 25.5118 40.0952C25.9974 39.9986 26.5006 40.0482 26.958 40.2376C27.4153 40.4271 27.8062 40.7479 28.0813 41.1595C28.3563 41.5711 28.5031 42.055 28.5031 42.55C28.5031 43.2139 28.2394 43.8505 27.77 44.3199C27.3006 44.7893 26.664 45.053 26.0001 45.053Z" fill="black"/>
</svg>
