<svg width="26" height="50" viewBox="0 0 26 50" fill="none" xmlns="http://www.w3.org/2000/svg">
<path d="M0.5 0V5H3V40C3 42.6522 4.05357 45.1957 5.92893 47.0711C7.8043 48.9464 10.3478 50 13 50C15.6522 50 18.1957 48.9464 20.0711 47.0711C21.9464 45.1957 23 42.6522 23 40V5H25.5V0H0.5ZM10.5 35C9 35 8 34 8 32.5C8 31 9 30 10.5 30C12 30 13 31 13 32.5C13 34 12 35 10.5 35ZM15.5 25C14 25 13 24 13 22.5C13 21 14 20 15.5 20C17 20 18 21 18 22.5C18 24 17 25 15.5 25ZM18 12.5H8V5H18V12.5Z" fill="white"/>
</svg>
